:SAMPLES-PER-SECOND 30
:FULLY-SPECIFIED
:DEGREES
71
root  35.02110459 36.55124875 -14.49232627 10.43010044 1.556242943 2.712388992
lowerback  -8.442939758 1.23427999 1.032779574
upperback  -3.780100107 1.239199996 -3.324790001
thorax  0.9162330031 0.4234049916 -3.911499977
lowerneck  -14.61750031 3.275369883 3.135200024
upperneck  11.15779972 2.968330145 4.528759956
head  5.755430222 1.877660036 1.193420053
lclavicle  0 -4.497500157e-015 -2.743230041e-014
lhumerus  -44.78829956 27.23959923 68.58249664
lradius  -0.4876846373 -6.507048965e-006 27.72770119
lwrist  4.824992743e-007 -3.790274832e-007 -30.85619926
lhand  -3.510337899e-031 -36.93180084 -10.74450016
lfingers  90 7.125020027 -90
lthumb  94.8458252 -25.57791519 101.1094818
rclavicle  0 -4.497500157e-015 -2.743230041e-014
rhumerus  0.4924137294 8.323359489 -72.46399689
rradius  -5.16745672e-007 2.214343908e-008 91.85469818
rwrist  1.129822067e-006 0.001802438172 -174.5839996
rhand  -2.987797028e-031 1.450719953 -8.131480217
rfingers  -90 -7.125020027 -90
rthumb  -85.99423981 -7.813600063 -62.74712372
rfemur  -12.35190296 14.59051418 13.67277622
rtibia  -0.3503781557 0.8981661201 19.55850029
rfoot  -0.040589571 -18.60748863 -39.8427887
rtoes  4.156651497 19.57101059 -102.2353592
lfemur  -9.830457687 -17.04992485 -18.48792839
ltibia  2.566571712 1.659502745 14.43945599
lfoot  0.3296200335 -28.31473351 32.96957779
ltoes  -8.570867538 -18.13875771 -115.8325272
72
root  35.02075616 36.55170531 -14.49024321 10.4455328 1.631002784 2.70142436
lowerback  -8.42095089 1.257099867 1.036249995
upperback  -3.805140018 1.265750051 -3.361170053
thorax  0.8810260296 0.4341810048 -3.949369907
lowerneck  -14.60499954 3.251689911 3.130300045
upperneck  11.13619995 2.926599979 4.596749783
head  5.746039867 1.860689998 1.211240053
lclavicle  0 -4.497500157e-015 -2.743230041e-014
lhumerus  -44.75429916 27.19059944 68.52310181
lradius  -0.4879079163 -6.507048965e-006 27.68510056
lwrist  4.824992743e-007 -3.790274832e-007 -30.84700012
lhand  -3.510009096e-031 -36.91889954 -10.75030041
lfingers  90 7.125020027 -90
lthumb  94.84098053 -25.58407021 101.0961761
rclavicle  0 -4.497500157e-015 -2.743230041e-014
rhumerus  2.189100027 8.48814106 -71.96900177
rradius  -5.16745672e-007 2.214343908e-008 91.90329742
rwrist  1.129822067e-006 0.001802438172 -174.8999939
rhand  -2.982831402e-031 1.877159953 -8.203920364
rfingers  -90 -7.125020027 -90
rthumb  -85.9425354 -7.777292252 -62.33698273
rfemur  -12.33572674 14.554492 13.69244576
rtibia  -0.3500985205 0.9112862945 19.51753426
rfoot  -0.02000546083 -18.56459045 -39.85505676
rtoes  4.14313364 19.57035065 -102.1950302
lfemur  -9.89369297 -17.10468292 -18.45189476
ltibia  2.533942699 1.645284772 14.51846695
lfoot  0.3188791573 -28.31587601 32.91087341
ltoes  -8.576471329 -18.13617897 -115.8505249
73
root  35.02036267 36.55214084 -14.48670935 10.47990227 1.71617198 2.70121479
lowerback  -8.349189758 1.294280052 1.09537065
upperback  -3.839869976 1.307139993 -3.413110018
thorax  0.8111180067 0.4512169957 -4.034349918
lowerneck  -14.58390045 3.210930109 3.163269997
upperneck  11.10480022 2.86303997 4.614299774
head  5.733709812 1.830890059 1.204820037
lclavicle  0 -4.497500157e-015 -2.743230041e-014
lhumerus  -44.68629837 27.13100052 68.45909882
lradius  -0.4881198406 -6.507048965e-006 27.58120155
lwrist  4.824992743e-007 -3.790274832e-007 -30.82740021
lhand  -3.511117048e-031 -36.92210007 -10.73649979
lfingers  90 7.125020027 -90
lthumb  94.83950806 -25.57036972 101.0982742
rclavicle  0 -4.497500157e-015 -2.743230041e-014
rhumerus  3.88209033 8.611909866 -71.61070251
rradius  -5.16745672e-007 2.214343908e-008 91.80470276
rwrist  1.129822067e-006 0.001802438172 -175.0500031
rhand  -2.98377149e-031 2.529230118 -8.186260223
rfingers  -90 -7.125020027 -90
rthumb  -85.80148315 -7.836442471 -61.70170593
rfemur  -12.3393507 14.48356628 13.70485973
rtibia  -0.3514760137 0.9047180414 19.48897552
rfoot  -0.01642885804 -18.56005096 -39.87670135
rtoes  4.169918537 19.56977654 -102.2749481
lfemur  -9.965491295 -17.14807892 -18.41473961
ltibia  2.522672892 1.655484319 14.55924225
lfoot  0.3153996468 -28.33961296 32.85474014
ltoes  -8.604960442 -18.12303352 -115.9420853
74
root  35.01970486 36.55254334 -14.4824411 10.53032017 1.824707627 2.716845274
lowerback  -8.269940376 1.319550037 1.160769463
upperback  -3.867889881 1.334470034 -3.435610056
thorax  0.7425400019 0.4625029862 -4.093560219
lowerneck  -14.53310013 3.165829897 3.124530077
upperneck  11.0394001 2.80801034 4.663949966
head  5.703829765 1.803830028 1.219740033
lclavicle  0 -4.497500157e-015 -2.743230041e-014
lhumerus  -44.76250076 27.2227993 68.36560059
lradius  -0.4883208871 -6.507048965e-006 27.60679817
lwrist  4.824992743e-007 -3.790274832e-007 -30.94339943
lhand  -3.515994407e-031 -36.90420151 -10.68029976
lfingers  90 7.125020027 -90
lthumb  94.81915283 -25.51588631 101.0739975
rclavicle  0 -4.497500157e-015 -2.743230041e-014
rhumerus  5.628578663 8.83426857 -71.05999756
rradius  -5.16745672e-007 2.214343908e-008 91.80149841
rwrist  1.129822067e-006 0.001802438172 -175.0639954
rhand  -2.996677408e-031 2.327069998 -7.994709969
rfingers  -90 -7.125020027 -90
rthumb  -85.75183868 -7.99185276 -61.88580704
rfemur  -12.41329098 14.44559193 13.7128334
rtibia  -0.3802206814 0.9475240707 19.55720901
rfoot  -0.02562991716 -18.46006393 -39.87726974
rtoes  4.163994789 19.56928825 -102.2572708
lfemur  -9.98522377 -17.09250259 -18.41631889
ltibia  2.57291913 1.725700617 14.48319435
lfoot  0.3233641088 -28.43663597 32.76771164
ltoes  -8.567529678 -18.14029312 -115.8218079
75
root  35.01854243 36.55290979 -14.48034452 10.56326103 1.939858794 2.725807905
lowerback  -8.233739853 1.323049903 1.205479383
upperback  -3.886800051 1.335510015 -3.426660061
thorax  0.7039219737 0.4620510042 -4.110040188
lowerneck  -14.51399994 3.149450064 3.018529892
upperneck  11.00930023 2.806089878 4.705560207
head  5.688670158 1.801309943 1.248870015
lclavicle  0 -4.497500157e-015 -2.743230041e-014
lhumerus  -44.85580063 27.40740013 68.28510284
lradius  -0.4885113835 -6.507048965e-006 27.65830231
lwrist  4.824992743e-007 -3.790274832e-007 -31.07849884
lhand  -3.514828859e-031 -36.89459991 -10.69569969
lfingers  90 7.125020027 -90
lthumb  94.81795502 -25.53138161 101.0651932
rclavicle  0 -4.497500157e-015 -2.743230041e-014
rhumerus  7.438789368 9.182470322 -70.23680115
rradius  -5.16745672e-007 2.214343908e-008 91.7201004
rwrist  1.129822067e-006 0.001802438172 -175.2850037
rhand  -3.003188097e-031 2.28963995 -7.897699833
rfingers  -90 -7.125020027 -90
rthumb  -85.71347809 -8.074961662 -61.91569901
rfemur  -12.44113541 14.36992168 13.72724533
rtibia  -0.3937564194 0.9616265297 19.58495331
rfoot  -0.04363681003 -18.43352127 -39.90565109
rtoes  4.139798164 19.56887817 -102.1850739
lfemur  -10.0107851 -17.13084602 -18.41146469
ltibia  2.596652746 1.732961774 14.45874596
lfoot  0.3101103604 -28.42338562 32.68998337
ltoes  -8.547081947 -18.14968109 -115.7561417
76
root  35.01424114 36.55322818 -14.47850175 10.58212471 2.066479921 2.749056578
lowerback  -8.282839775 1.370869875 1.337170124
upperback  -3.863800049 1.391800046 -3.487570047
thorax  0.7637789845 0.4897249937 -4.242720127
lowerneck  -14.53279972 3.098579884 3.017729998
upperneck  10.94699955 2.734480143 4.735030174
head  5.672589779 1.767089963 1.25127995
lclavicle  0 -4.497500157e-015 -2.743230041e-014
lhumerus  -44.75189972 27.34230042 68.29499817
lradius  -0.4886918068 -6.507048965e-006 27.67110062
lwrist  4.824992743e-007 -3.790274832e-007 -31.04179955
lhand  -3.523551496e-031 -36.94189835 -10.58399963
lfingers  90 7.125020027 -90
lthumb  94.81628418 -25.42009544 101.1054916
rclavicle  0 -4.497500157e-015 -2.743230041e-014
rhumerus  9.09955883 8.965790749 -69.75530243
rradius  -5.16745672e-007 2.214343908e-008 91.66179657
rwrist  1.129822067e-006 0.001802438172 -175.4250031
rhand  -2.982125215e-031 2.525190115 -8.21088028
rfingers  -90 -7.125020027 -90
rthumb  -85.81407928 -7.814535141 -61.70727158
rfemur  -12.46632671 14.35461426 13.74012661
rtibia  -0.4180205464 1.005081058 19.6462574
rfoot  -0.07458283007 -18.35193443 -39.97738647
rtoes  4.133268356 19.56854439 -102.165596
lfemur  -9.953018188 -17.22135735 -18.4553051
ltibia  2.679336548 1.745740771 14.34006405
lfoot  0.3123202026 -28.38699532 32.66913605
ltoes  -8.534047127 -18.15184784 -115.7143097
77
root  35.01151077 36.55349852 -14.47620242 10.60341644 2.198032856 2.771320581
lowerback  -8.187358856 1.438449979 1.370229244
upperback  -3.929320097 1.474149942 -3.5079
thorax  0.6515409946 0.5263100266 -4.277019978
lowerneck  -14.51509953 3.01067996 2.967799902
upperneck  10.96630001 2.621670008 4.765999794
head  5.675859928 1.712370038 1.258790016
lclavicle  0 -4.497500157e-015 -2.743230041e-014
lhumerus  -44.75090027 27.20350075 68.34349823
lradius  -0.4888625443 -6.507048965e-006 27.64160156
lwrist  4.824992743e-007 -3.790274832e-007 -31.01659775
lhand  -3.522087695e-031 -36.95479965 -10.59980011
lfingers  90 7.125020027 -90
lthumb  94.82563782 -25.43504715 101.1206665
rclavicle  0 -4.497500157e-015 -2.743230041e-014
rhumerus  10.69419765 8.746250153 -68.95500183
rradius  -5.16745672e-007 2.214343908e-008 91.52449799
rwrist  1.129822067e-006 0.001802438172 -176.1289978
rhand  -2.992158553e-031 2.716749907 -8.05976963
rfingers  -90 -7.125020027 -90
rthumb  -85.70183563 -7.96030426 -61.51089859
rfemur  -12.48346424 14.29940128 13.74739456
rtibia  -0.4369522333 1.018231153 19.69067764
rfoot  -0.1088112891 -18.33183098 -40.04204559
rtoes  4.135504723 19.56828117 -102.1722641
lfemur  -9.923278809 -17.27858162 -18.48344421
ltibia  2.746812582 1.78173542 14.24942398
lfoot  0.3294530511 -28.41583061 32.6494751
ltoes  -8.54850769 -18.15081596 -115.7607269
